# xmcd CD database file
#
# Track frame offsets:
#	150
#	64870
#	120150
#	164592
#	222485
#	278562
#
# Disc length: 4562 seconds
#
# Revision: 4
# Processed by: cddbd v1.5.1PL0 Copyright (c) Steve Scherf et al.
# Submitted via: CDex 1.51
#
DISCID=5311d006
DTITLE=ノイマン指揮／チェコ フィルハーモニー管弦楽団 - スメタナ：連作交響詩「わが祖国」
DYEAR=1982
DGENRE=Classical
TTITLE0=I. ヴィシェフラト（高い城）〜連作交響詩「わが祖国」
TTITLE1=II. ヴルタヴァ（モルダウ）〜連作交響詩「わが祖国」
TTITLE2=III. シャールカ〜連作交響詩「わが祖国」
TTITLE3=IV. ボヘミアと森と草原より〜連作交響詩「わが祖国」
TTITLE4=V. ターボル〜連作交響詩「わが祖国」
TTITLE5=VI. プラニーク〜連作交響詩「わが祖国」
EXTD=YEAR: 1982
EXTT0=
EXTT1=
EXTT2=
EXTT3=
EXTT4=
EXTT5=
PLAYORDER=
